<svg width="75" height="75" viewBox="0 0 75 75" fill="none" xmlns="http://www.w3.org/2000/svg">
<circle cx="37.5" cy="37.5" r="35" fill="#F7FAFE" stroke="url(#paint0_linear)" stroke-width="5"/>
<path d="M23.417 50.5V58.3458L26.5732 56.4521L36.4941 50.5H46.3337C48.6316 50.5 50.5003 48.6312 50.5003 46.3333V29.6667C50.5003 27.3687 48.6316 25.5 46.3337 25.5H21.3337C19.0357 25.5 17.167 27.3687 17.167 29.6667V46.3333C17.167 48.6312 19.0357 50.5 21.3337 50.5H23.417ZM21.3337 29.6667H46.3337V46.3333H35.3399L27.5837 50.9875V46.3333H21.3337V29.6667Z" fill="url(#paint1_linear)"/>
<path d="M54.6667 17.167H29.6667C27.3688 17.167 25.5 19.0357 25.5 21.3337H50.5C52.7979 21.3337 54.6667 23.2024 54.6667 25.5003V42.167C56.9646 42.167 58.8333 40.2983 58.8333 38.0003V21.3337C58.8333 19.0357 56.9646 17.167 54.6667 17.167Z" fill="url(#paint2_linear)"/>
<defs>
<linearGradient id="paint0_linear" x1="0" y1="37.5" x2="75" y2="37.5" gradientUnits="userSpaceOnUse">
<stop stop-color="#0BA360"/>
<stop offset="1" stop-color="#3CBA92"/>
</linearGradient>
<linearGradient id="paint1_linear" x1="17.167" y1="41.9229" x2="50.5003" y2="41.9229" gradientUnits="userSpaceOnUse">
<stop stop-color="#0BA360"/>
<stop offset="1" stop-color="#3CBA92"/>
</linearGradient>
<linearGradient id="paint2_linear" x1="25.5" y1="29.667" x2="58.8333" y2="29.667" gradientUnits="userSpaceOnUse">
<stop stop-color="#0BA360"/>
<stop offset="1" stop-color="#3CBA92"/>
</linearGradient>
</defs>
</svg>
